<?xml version="1.0" encoding="UTF-8" standalone="no"?>
<!-- Created with Inkscape (http://www.inkscape.org/) -->

<svg
   version="1.1"
   id="svg1"
   width="1000"
   height="212"
   viewBox="0 0 1000 212"
   sodipodi:docname="Brand.svg"
   inkscape:version="1.3.2 (091e20e, 2023-11-25, custom)"
   xmlns:inkscape="http://www.inkscape.org/namespaces/inkscape"
   xmlns:sodipodi="http://sodipodi.sourceforge.net/DTD/sodipodi-0.dtd"
   xmlns="http://www.w3.org/2000/svg"
   xmlns:svg="http://www.w3.org/2000/svg">
  <defs
     id="defs1" />
  <sodipodi:namedview
     id="namedview1"
     pagecolor="#ffffff"
     bordercolor="#000000"
     borderopacity="0.25"
     inkscape:showpageshadow="2"
     inkscape:pageopacity="0.0"
     inkscape:pagecheckerboard="0"
     inkscape:deskcolor="#d1d1d1"
     inkscape:zoom="0.73468395"
     inkscape:cx="456.65895"
     inkscape:cy="53.764616"
     inkscape:window-width="1920"
     inkscape:window-height="991"
     inkscape:window-x="-9"
     inkscape:window-y="1341"
     inkscape:window-maximized="1"
     inkscape:current-layer="g1" />
  <g
     inkscape:groupmode="layer"
     inkscape:label="Image"
     id="g1">
    <g
       id="g2">
      <path
         style="fill:#fefefe"
         d="M 68.75,211.92105 0,212 V 106 0 h 500 500 V 106 212 H 570.53872 141.07745 l 3.8686,-3.75 c 2.12772,-2.0625 12.75521,-13.2 23.61663,-24.75 16.98376,-18.06047 20.73485,-21.53407 26.79778,-24.81539 3.87735,-2.09846 9.17667,-5.3767 11.77626,-7.28497 2.59959,-1.90828 7.01143,-5.96964 9.8041,-9.02526 2.79266,-3.05563 6.84744,-8.55239 9.01061,-12.21503 2.16317,-3.66264 5.14351,-10.25935 6.62298,-14.65935 2.0854,-6.20208 2.80216,-10.60925 3.18927,-19.610096 0.3805,-8.847069 0.0839,-13.487774 -1.2465,-19.5 -0.9602,-4.339447 -3.03581,-10.745754 -4.61247,-14.236238 -1.57665,-3.490483 -4.84395,-9.115483 -7.26065,-12.5 -2.41671,-3.384516 -6.58778,-8.197348 -9.26904,-10.695181 -2.68126,-2.497834 -7.04067,-6.026319 -9.68757,-7.841078 -2.64691,-1.814759 -7.59691,-4.551821 -11,-6.08236 -3.4031,-1.530538 -9.27019,-3.546903 -13.03798,-4.480809 -3.76779,-0.933906 -10.63205,-2.088162 -15.2539,-2.565013 -4.90719,-0.506289 -12.04215,-0.484805 -17.14947,0.05164 -4.81036,0.505251 -12.07298,1.847169 -16.13916,2.98204 -4.06618,1.134871 -9.91618,3.316227 -13,4.847458 -3.08382,1.531231 -7.63194,4.061077 -10.10694,5.621879 -2.475,1.560803 -7.214,5.576059 -10.531108,8.922791 -3.31711,3.346733 -7.685608,8.607602 -9.707774,11.69082 -2.022166,3.083219 -4.650389,8.033219 -5.840495,11 C 80.730517,66.072633 79.142476,70.75 78.391642,73.5 c -0.750833,2.75 -1.658803,9.109445 -2.017709,14.1321 -0.479918,6.716126 -0.193466,11.681838 1.082754,18.76982 1.245898,6.91958 2.95283,12.09991 6.052264,18.3679 2.374324,4.8016 6.384811,11.31399 8.912194,14.47199 2.527382,3.15799 7.179053,7.79064 10.337045,10.29478 3.158,2.50413 9.79181,6.56248 14.74181,9.01855 4.95,2.45606 12.05782,5.20559 15.79516,6.11005 4.00358,0.9689 7.12537,1.27276 7.59895,0.73965 0.44208,-0.49766 1.99675,-4.19308 3.45483,-8.21205 C 145.80702,153.17382 147,149.46132 147,148.94279 147,148.40347 141.73243,148 134.69113,148 c -8.44794,0 -12.86013,-0.40309 -14.06633,-1.28509 -0.9666,-0.70679 -2.00443,-3.12636 -2.30628,-5.37681 l -0.54881,-4.09174 17.80486,-18.87318 c 9.79268,-10.38025 22.35831,-23.653003 27.92364,-29.495008 5.56532,-5.842005 11.09745,-10.932452 12.29363,-11.312104 1.58919,-0.50439 2.85257,-0.01256 4.69151,1.826374 1.38416,1.384157 2.51665,3.433109 2.51665,4.553227 0,1.120119 -3.59948,12.278073 -7.99884,24.795451 -4.39937,12.51739 -7.99937,23.09638 -8,23.50888 -6.4e-4,0.4125 5.42842,0.75 12.06458,0.75 6.63616,0 12.91679,0.45547 13.95697,1.01215 1.04017,0.55669 2.17625,2.5315 2.52463,4.38848 0.38912,2.07419 0.11646,4.34696 -0.70697,5.89308 -0.7372,1.38421 -12.98554,14.8219 -27.21851,29.86152 -14.23298,15.03962 -26.97719,27.93825 -28.32045,28.66362 -2.07525,1.12063 -2.80745,1.0796 -4.87186,-0.27305 C 132.12624,201.03661 132,201.06159 132,203.02661 c 0,1.13999 0.66553,3.35971 1.47896,4.9327 0.81343,1.573 2.05093,3.09013 2.75,3.3714 0.69907,0.28127 -29.66646,0.54692 -67.47896,0.59034 z M 326.5,166.62502 c 14.08605,-0.29013 16.95698,-0.6461 24,-2.97578 4.4,-1.45543 10.11237,-3.89857 12.69415,-5.42919 2.58179,-1.53063 7.01189,-4.97739 9.84467,-7.65946 2.83278,-2.68208 6.70753,-7.22154 8.61055,-10.08771 1.90302,-2.86616 4.55283,-8.3535 5.88845,-12.19408 1.33563,-3.84059 2.87709,-10.08697 3.42549,-13.88085 0.54839,-3.79387 1.00599,-26.58545 1.01688,-50.64795 L 392,20 h -20 -20 l -0.008,41.75 c -0.004,23.926054 -0.44888,44.46981 -1.04129,48.12077 -0.56855,3.50392 -1.96758,8.22892 -3.10896,10.5 -1.14137,2.27107 -2.81029,4.96537 -3.70871,5.98732 -0.89842,1.02194 -3.88349,3.02733 -6.63349,4.4564 -4.19048,2.17765 -6.29522,2.59294 -13,2.56504 -6.11703,-0.0254 -8.94149,-0.52415 -12,-2.11878 -2.2,-1.14702 -5.41212,-3.58743 -7.13805,-5.42312 -1.72592,-1.8357 -3.86159,-4.77423 -4.74591,-6.53007 -0.88433,-1.75585 -2.0508,-6.25585 -2.59215,-10 -0.54135,-3.74416 -0.99319,-25.379377 -1.00408,-48.078265 L 297,19.958589 276.75,20.229295 256.5,20.5 256.60587,67 c 0.10068,44.22022 0.21109,46.89222 2.25205,54.5 1.18039,4.4 3.60775,10.92159 5.39413,14.49242 1.9467,3.89133 5.85209,9.13839 9.74795,13.09683 4.81189,4.88917 8.70753,7.68938 15,10.78204 4.675,2.2977 11.425,4.83141 15,5.63046 4.63441,1.03584 11.09222,1.35823 22.5,1.12327 z m 237.5,-0.0656 c 15.23868,-0.25738 17.1574,-0.50321 25.09978,-3.21586 4.72988,-1.61544 11.7644,-4.81724 15.63228,-7.1151 3.86787,-2.29786 9.6146,-6.61968 12.77052,-9.60404 3.37413,-3.19071 5.44744,-5.89629 5.03267,-6.56741 -0.38795,-0.62771 -6.15368,-6.03835 -12.81273,-12.02364 l -12.10738,-10.88235 -5.30781,4.85105 c -2.9193,2.66807 -7.698,6.02045 -10.61933,7.44972 -2.92132,1.42927 -8.14152,3.05444 -11.60042,3.61148 -4.07718,0.65661 -8.6274,0.68142 -12.93825,0.0705 -3.65713,-0.51824 -8.80517,-1.87724 -11.44009,-3.01998 -2.63491,-1.14275 -7.19154,-4.34829 -10.12583,-7.12342 -3.46217,-3.27438 -6.29509,-7.18488 -8.06972,-11.13928 -1.50405,-3.35147 -3.22029,-8.92884 -3.81388,-12.394151 -0.77625,-4.531753 -0.77164,-8.287831 0.0164,-13.379263 0.60263,-3.893283 2.41804,-9.890982 4.03427,-13.328221 1.61622,-3.437239 4.92103,-8.232078 7.34403,-10.655198 2.423,-2.423121 6.79884,-5.50775 9.72409,-6.854733 2.92526,-1.346982 8.4363,-2.931627 12.24677,-3.521433 5.06645,-0.784213 8.59148,-0.763041 13.11819,0.07879 3.40453,0.633139 8.58087,2.320881 11.50298,3.750536 2.92211,1.429656 7.71938,4.798734 10.6606,7.486841 l 5.34767,4.887467 12.67814,-11.520621 12.67814,-11.520621 -2.04121,-2.866627 c -1.12267,-1.576644 -4.84668,-5.091929 -8.27557,-7.811745 -3.42889,-2.719815 -9.12427,-6.398517 -12.65639,-8.174892 -3.53213,-1.776375 -10.73213,-4.346883 -16,-5.712239 -7.81219,-2.024804 -11.97461,-2.482465 -22.57796,-2.482465 -10.65381,0 -14.75492,0.454705 -22.72383,2.519469 -5.34811,1.385708 -13.35391,4.408046 -17.79068,6.716306 -4.93999,2.570068 -10.90565,6.847961 -15.39055,11.036369 -4.02804,3.761744 -9.22591,9.759153 -11.55083,13.327577 -2.32492,3.568423 -5.49772,9.768465 -7.05067,13.777869 -1.55294,4.009405 -3.37404,11.074222 -4.04689,15.699594 -0.71728,4.930816 -0.96745,11.963375 -0.60475,17 0.34023,4.724633 1.31905,11.290233 2.17516,14.590233 0.8561,3.3 3.3411,9.6 5.52221,14 2.18112,4.4 6.09402,10.48965 8.69534,13.53256 2.60131,3.0429 6.95458,7.42154 9.67393,9.73031 2.71934,2.30877 8.3524,5.96181 12.51791,8.11788 4.16551,2.15607 10.72365,4.83415 14.57365,5.95129 3.85,1.11713 8.125,2.25052 9.5,2.51862 1.375,0.26811 9.925,0.36206 19,0.20879 z M 440.75,164.98469 460,165 V 92.479295 19.958589 L 439.75,20.229295 419.5,20.5 419.24328,91.936832 c -0.20299,56.487768 0.006,71.603798 1,72.234688 0.6912,0.43882 9.91922,0.80475 20.50672,0.81317 z M 660.66667,165 H 680 v -18.08982 -18.08982 l 7.14249,-7.91018 C 691.07085,116.55958 694.6366,113 695.06637,113 c 0.42977,0 9.19974,10.6875 19.48883,23.75 10.28909,13.0625 19.79844,24.7625 21.13188,26 2.36463,2.19449 2.9782,2.25 24.86868,2.25 C 773.27498,165 783,164.60801 783,164.09534 c 0,-0.49756 -10.01649,-13.88506 -22.25888,-29.75 -12.24238,-15.86494 -25.79054,-33.45779 -30.10703,-39.09522 -4.31649,-5.637435 -7.62217,-10.838792 -7.34597,-11.558572 0.27621,-0.71978 13.03687,-14.930791 28.35704,-31.580025 C 766.96532,35.462289 779.65,21.426146 779.83333,20.920094 780.0298,20.377799 771.15868,20 758.22857,20 l -21.93809,0 -10.80656,11.75 C 719.54031,38.2125 708.51161,50.025 700.9757,58 693.43978,65.975 686.04737,73.9625 684.54812,75.75 683.04887,77.5375 681.41221,79 680.91111,79 680.38355,79 680,66.581188 680,49.5 V 20 h -20 -20 v 71.833333 c 0,39.508337 0.3,72.133337 0.66667,72.499997 0.36666,0.36667 9.36666,0.66667 20,0.66667 z M 815.93718,164.77052 835.5,164.5 l 0.5,-19 0.5,-19 10.53986,-0.2817 10.53987,-0.2817 12.38972,18.13986 c 6.81435,9.97692 13.01605,18.76618 13.78156,19.5317 1.09802,1.09801 5.69197,1.39184 21.7614,1.39184 11.20326,0 20.57788,-0.3375 20.83251,-0.75 0.25462,-0.4125 -6.24382,-10.53403 -14.44098,-22.4923 C 903.70677,129.79944 897,119.82554 897,119.59348 c 0,-0.23206 2.20208,-1.77688 4.8935,-3.43293 2.69143,-1.65606 6.98821,-5.18215 9.5484,-7.83578 2.56019,-2.65362 6.2021,-7.97477 8.09312,-11.82477 2.12278,-4.321844 3.86434,-9.8314 4.55198,-14.400539 0.62589,-4.158856 0.81101,-10.291323 0.42261,-14 -0.38013,-3.629704 -1.57629,-9.249933 -2.65814,-12.489398 -1.08186,-3.239465 -3.69582,-8.435726 -5.80881,-11.547246 -2.11299,-3.11152 -5.7995,-7.234495 -8.19223,-9.162167 -2.39274,-1.927673 -5.98902,-4.449877 -7.99174,-5.604899 -2.00272,-1.155022 -7.03489,-3.271347 -11.18259,-4.702943 -5.12108,-1.767558 -11.33383,-2.917131 -19.3587,-3.582027 -6.49957,-0.538519 -25.8799,-0.986248 -43.0674,-0.994953 L 795,20 v 71.833333 c 0,39.508337 0.30923,72.142567 0.68718,72.520517 0.37795,0.37795 9.49045,0.56545 20.25,0.41667 z M 851.75,94.818744 836,95.209557 V 74.104779 53 h 15.35078 c 8.9593,0 16.76608,0.480045 18.75,1.152952 1.86957,0.634124 4.64351,2.019601 6.16431,3.078839 1.5208,1.059237 3.50923,3.352908 4.41875,5.097047 0.90951,1.744139 1.9913,4.971162 2.40397,7.171162 0.41267,2.2 0.33457,6.210371 -0.17357,8.911936 -0.50814,2.701565 -2.11041,6.467542 -3.5606,8.368837 -1.45019,1.901296 -4.71052,4.399709 -7.24517,5.552029 -3.8949,1.770721 -7.04718,2.155641 -20.35847,2.485942 z"
         id="path9" />
      <path
         style="fill:#00b5d8;fill-opacity:1"
         d="m 139.5,212 c -0.275,0 -0.5,-0.225 -0.5,-0.5 0,-0.275 0.225,-0.5 0.5,-0.5 0.275,0 0.5,0.225 0.5,0.5 0,0.275 -0.225,0.5 -0.5,0.5 z m -7,-8 c -0.275,0 -0.5,-0.225 -0.5,-0.5 0,-0.275 0.225,-0.5 0.5,-0.5 0.275,0 0.5,0.225 0.5,0.5 0,0.275 -0.225,0.5 -0.5,0.5 z m 29,-13 c -0.275,0 -0.5,-0.225 -0.5,-0.5 0,-0.275 0.225,-0.5 0.5,-0.5 0.275,0 0.5,0.225 0.5,0.5 0,0.275 -0.225,0.5 -0.5,0.5 z m -2.11803,-7 c -0.275,0 -0.22189,-0.45 0.11803,-1 0.33992,-0.55 0.84303,-1 1.11803,-1 0.275,0 0.22189,0.45 -0.11803,1 -0.33992,0.55 -0.84303,1 -1.11803,1 z M 178.5,173 c -0.275,0 -0.5,-0.225 -0.5,-0.5 0,-0.275 0.225,-0.5 0.5,-0.5 0.275,0 0.5,0.225 0.5,0.5 0,0.275 -0.225,0.5 -0.5,0.5 z m -38.43262,-7.07444 C 139.75532,165.88461 135.9,164.85271 131.5,163.63243 127.1,162.41216 119.675,159.41854 115,156.97994 108.763,153.72657 104.34476,150.4101 98.404773,144.52306 93.952399,140.11038 88.752422,133.8 86.849269,130.5 c -1.903153,-3.3 -4.670038,-9.28079 -6.148633,-13.29064 -1.478595,-4.00986 -3.119632,-11.08617 -3.646748,-15.72514 -0.630851,-5.551908 -0.607279,-11.579341 0.06897,-17.636373 0.577399,-5.171646 2.255046,-12.565813 3.830425,-16.882455 1.541685,-4.224316 4.480799,-10.303298 6.531366,-13.50885 2.050566,-3.205551 6.252511,-8.474644 9.337656,-11.709096 3.085145,-3.234452 8.550464,-7.836066 12.145144,-10.225809 3.59469,-2.389743 9.95241,-5.702209 14.12826,-7.361036 4.17585,-1.658827 10.47512,-3.579319 13.99838,-4.267761 3.52325,-0.688442 12.25591,-1.266668 19.40591,-1.284946 9.01747,-0.02305 15.45079,0.519764 21,1.771892 4.4,0.99282 12.275,3.886609 17.5,6.430642 8.16246,3.974272 10.83754,5.967747 19,14.158869 7.70552,7.732579 10.29664,11.138688 13.71745,18.032029 2.31959,4.674271 4.96801,11.648674 5.88536,15.498674 1.01941,4.278327 1.67725,11.276914 1.69191,18 0.0152,6.984294 -0.59349,13.55545 -1.66745,18 -0.93029,3.85 -3.5206,10.70481 -5.75624,15.23291 -2.64014,5.3474 -6.38044,10.73401 -10.67178,15.36906 -3.63384,3.92488 -8.93071,8.85279 -11.77083,10.95091 -2.84011,2.09811 -7.58475,4.98264 -10.54364,6.41005 l -5.3798,2.5953 5.68427,-5.77911 c 3.12634,-3.17852 5.98651,-7.01662 6.35591,-8.52912 0.36941,-1.5125 0.39483,-3.85297 0.0565,-5.20103 -0.37106,-1.47842 -2.73687,-3.85934 -5.96192,-6 C 190.48066,132.12457 189.96819,132 181.03951,132 c -8.40986,0 -9.19038,-0.15954 -8.56132,-1.75 0.3807,-0.9625 4.07385,-11.11457 8.207,-22.56017 6.02013,-16.671063 7.38754,-21.488622 6.87489,-24.221254 -0.35196,-1.8761 -1.62209,-4.099026 -2.82251,-4.939834 C 183.53715,77.687934 180.67438,77 178.37585,77 c -4.17104,0 -4.23213,0.05545 -31.52749,28.61673 -15.0416,15.7392 -27.89491,29.5767 -28.56292,30.75 -0.66802,1.1733 -1.23052,3.08508 -1.25,4.24841 -0.0195,1.16333 0.96504,3.41333 2.18785,5 1.41092,1.83077 1.59362,2.38339 0.5,1.51242 C 118.52603,146.17404 118,146.11161 118,146.92301 c 0,0.64234 1.10455,2.27244 2.45455,3.62244 2.31198,2.31199 3.10091,2.45455 13.58333,2.45455 8.51069,0 11.00778,0.29407 10.61442,1.25 -0.28291,0.6875 -1.30259,3.6125 -2.26596,6.5 -0.96337,2.8875 -2.0069,5.2165 -2.31896,5.17556 z M 180.38197,162 c -0.275,0 -0.22189,-0.45 0.11803,-1 0.33992,-0.55 0.84303,-1 1.11803,-1 0.275,0 0.22189,0.45 -0.11803,1 -0.33992,0.55 -0.84303,1 -1.11803,1 z M 145.5,152 c -0.275,0 -0.5,-0.225 -0.5,-0.5 0,-0.275 0.225,-0.5 0.5,-0.5 0.275,0 0.5,0.225 0.5,0.5 0,0.275 -0.225,0.5 -0.5,0.5 z m -23,-3 c -0.275,0 -0.5,-0.225 -0.5,-0.5 0,-0.275 0.225,-0.5 0.5,-0.5 0.275,0 0.5,0.225 0.5,0.5 0,0.275 -0.225,0.5 -0.5,0.5 z m 46,-19 c -0.275,0 -0.5,-0.225 -0.5,-0.5 0,-0.275 0.225,-0.5 0.5,-0.5 0.275,0 0.5,0.225 0.5,0.5 0,0.275 -0.225,0.5 -0.5,0.5 z m 1,-3 c -0.275,0 -0.5,-0.225 -0.5,-0.5 0,-0.275 0.225,-0.5 0.5,-0.5 0.275,0 0.5,0.225 0.5,0.5 0,0.275 -0.225,0.5 -0.5,0.5 z m 5,-14 c -0.275,0 -0.5,-0.225 -0.5,-0.5 0,-0.275 0.225,-0.5 0.5,-0.5 0.275,0 0.5,0.225 0.5,0.5 0,0.275 -0.225,0.5 -0.5,0.5 z m 1,-3 c -0.275,0 -0.5,-0.225 -0.5,-0.5 0,-0.275 0.225,-0.5 0.5,-0.5 0.275,0 0.5,0.225 0.5,0.5 0,0.275 -0.225,0.5 -0.5,0.5 z m 4,-11 c -0.275,0 -0.5,-0.225 -0.5,-0.5 0,-0.275 0.225,-0.5 0.5,-0.5 0.275,0 0.5,0.225 0.5,0.5 0,0.275 -0.225,0.5 -0.5,0.5 z m 1,-3 c -0.275,0 -0.5,-0.225 -0.5,-0.5 0,-0.275 0.225,-0.5 0.5,-0.5 0.275,0 0.5,0.225 0.5,0.5 0,0.275 -0.225,0.5 -0.5,0.5 z m 3,-11 c -0.275,0 -0.5,-0.225 -0.5,-0.5 0,-0.275 0.225,-0.5 0.5,-0.5 0.275,0 0.5,0.225 0.5,0.5 0,0.275 -0.225,0.5 -0.5,0.5 z"
         id="path5" />
      <path
         style="fill:#0097b5;fill-opacity:1"
         d="m 139.01473,211 c -1.48761,0 -3.4495,-0.82293 -4.35974,-1.82874 C 133.74474,208.16545 133,206.45581 133,205.37206 c 0,-1.64789 0.55062,-1.90618 3.36351,-1.57779 3.2493,0.37934 4.29327,-0.57968 30.74358,-28.24187 15.05903,-15.749 27.99013,-29.79891 28.73578,-31.22202 0.76463,-1.45936 1.1032,-3.85005 0.77654,-5.48335 -0.53238,-2.66188 -0.4152,-2.80811 1.45026,-1.80974 1.11619,0.59736 2.51368,2.14891 3.10553,3.44789 0.59185,1.29897 0.78766,3.89924 0.43514,5.77836 -0.35253,1.87913 -1.81082,4.50107 -3.24065,5.82653 -1.42983,1.32546 -10.7295,10.95993 -20.66592,21.40993 -9.93642,10.45 -22.09779,23.1625 -27.02525,28.25 -6.95271,7.17852 -9.56475,9.25 -11.66379,9.25 z m -5.06018,-58 c -10.39394,0 -11.19024,-0.14478 -13.5,-2.45455 -1.35,-1.35 -2.45455,-2.95051 -2.45455,-3.5567 0,-0.66653 0.87844,-0.48687 2.22251,0.45455 1.70887,1.19694 4.96907,1.5567 14.10699,1.5567 10.42625,0 11.81,0.19409 11.27749,1.58179 -0.33385,0.86998 -0.60699,1.76998 -0.60699,2 C 145,152.8118 140.02955,153 133.95455,153 Z m 35.9736,-21 C 168.86767,132 168,131.77956 168,131.51013 c 0,-0.26943 3.41561,-10.05693 7.59025,-21.75 4.17464,-11.693073 7.611,-22.956891 7.63637,-25.030709 0.0278,-2.275213 -0.66432,-4.555594 -1.74524,-5.75 C 180.07774,77.428417 180.00006,77 181.12251,77 c 0.78786,0 2.41464,0.687934 3.61506,1.528742 1.20042,0.840808 2.4719,3.070926 2.82551,4.955818 0.50997,2.718384 -0.64561,7.003371 -5.58816,20.72126 -3.4271,9.5118 -7.10579,19.65668 -8.17486,22.54418 -1.42396,3.84606 -2.45938,5.25 -3.87191,5.25 z"
         id="path4" />
      <path
         style="fill:#002330"
         d="m 323.34292,166.92552 c -4.86361,-0.041 -12.89292,-0.93815 -17.84292,-1.99375 -4.95,-1.05559 -12.375,-3.56585 -16.5,-5.57836 -5.42849,-2.64846 -9.45899,-5.6387 -14.59263,-10.82633 -4.87656,-4.92786 -8.08668,-9.27115 -10.27415,-13.90095 -1.74985,-3.70355 -3.91605,-9.52202 -4.81379,-12.92993 -1.36589,-5.18507 -1.70089,-13.90672 -2.05289,-53.4462 L 256.8459,21 l 20.02212,0 20.02212,0 0.36212,46.25 c 0.28673,36.62074 0.65698,47.0828 1.77832,50.25 0.77891,2.2 3.70599,6.30717 6.50464,9.12705 4.47846,4.51243 5.92081,5.31636 12.03199,6.70632 5.86062,1.33297 7.8785,1.38564 12.93817,0.33767 3.29704,-0.68288 7.66472,-2.38042 9.70596,-3.77231 2.04123,-1.39189 4.64642,-3.71948 5.7893,-5.17242 1.14289,-1.45294 2.96029,-5.2062 4.03867,-8.34056 C 351.87303,111.05595 352,107.78285 352,65.84345 V 21 h 20 20 v 40.469726 c 0,31.749606 -0.34173,42.792584 -1.58595,51.250004 -0.87227,5.92915 -2.7329,13.70527 -4.13473,17.28027 -1.40183,3.575 -4.56245,9.34972 -7.0236,12.83271 -2.5227,3.57011 -7.15355,8.30963 -10.61527,10.86439 -3.37725,2.49242 -8.57106,5.61056 -11.54181,6.9292 -2.97075,1.31864 -9.79144,3.29216 -15.15709,4.38561 -5.72043,1.16575 -13.41344,1.95728 -18.59863,1.91361 z M 561,166.92109 c -6.29831,-0.0403 -13.01329,-0.87344 -19.92458,-2.47207 -6.19357,-1.43263 -13.77068,-4.06887 -18.66887,-6.49531 -4.53436,-2.24622 -10.8683,-6.37652 -14.07542,-9.17845 -3.20712,-2.80193 -7.85613,-7.61467 -10.33113,-10.69498 -2.475,-3.08031 -5.93408,-8.52101 -7.68685,-12.09043 -1.75276,-3.56942 -4.16904,-10.07387 -5.3695,-14.45433 -1.91433,-6.98539 -2.12135,-9.6899 -1.68406,-22.000001 0.44033,-12.395295 0.84633,-14.970418 3.47422,-22.035519 1.6366,-4.4 4.48109,-10.475 6.3211,-13.5 1.84001,-3.025 5.15993,-7.677943 7.3776,-10.339874 2.21767,-2.66193 6.74008,-6.892496 10.04981,-9.401257 3.30972,-2.508762 9.30337,-6.09266 13.31921,-7.964219 4.01585,-1.871558 10.70364,-4.272945 14.86176,-5.336414 4.15813,-1.063469 11.67244,-2.222 16.69847,-2.574513 5.35634,-0.37568 12.86293,-0.146912 18.13824,0.552774 4.95,0.656539 12.375,2.315406 16.5,3.686371 4.125,1.370966 10.65,4.351097 14.5,6.622515 3.85,2.271417 9.3625,6.360698 12.25,9.087291 2.8875,2.726592 5.21185,5.454665 5.16521,6.062383 C 621.86858,45.002776 617.32857,49.55 611.8263,54.5 c -5.50227,4.95 -11.03145,9.783024 -12.28706,10.740052 -2.23934,1.706824 -2.37508,1.654242 -7.10829,-2.753529 -2.65394,-2.47147 -7.73483,-5.954493 -11.29086,-7.740052 C 574.95993,51.643282 574.16317,51.5 563.08729,51.5 552.18338,51.5 551.11665,51.683328 545,54.608467 c -3.575,1.709656 -8.43047,5.079113 -10.78994,7.487681 -2.35946,2.408568 -5.72814,7.309758 -7.48596,10.891533 -3.10363,6.324039 -3.19519,6.888167 -3.16687,19.512319 0.027,12.02285 0.23352,13.43639 2.74798,18.80569 1.49536,3.19313 4.84201,8.07554 7.43701,10.8498 2.59499,2.77427 6.95444,6.17732 9.68766,7.56234 2.73321,1.38503 8.36712,3.10963 12.5198,3.83245 6.32923,1.10166 8.72936,1.08912 14.84064,-0.0776 4.00968,-0.76548 9.46126,-2.57335 12.11463,-4.0175 2.65337,-1.44414 7.12175,-4.63545 9.92972,-7.0918 l 5.10541,-4.46609 6.77996,6.21527 c 3.72898,3.4184 9.14016,8.42539 12.02484,11.12664 4.45853,4.17502 5.08944,5.20183 4.20809,6.84865 -0.57024,1.06551 -3.98751,4.37117 -7.59394,7.34591 -3.60642,2.97475 -9.9259,7.05131 -14.04329,9.05904 -4.17545,2.03604 -12.20262,4.72035 -18.15095,6.06973 -7.44337,1.68854 -13.53437,2.40096 -20.16479,2.35853 z M 440,164 H 420 V 92.5 21 h 20 20 V 92.5 164 Z m 219.99334,0 H 639.98667 L 640.24334,92.75 640.5,21.5 660.25,21.22886 680,20.95772 v 29.604473 c 0,17.815315 0.37021,29.471733 0.92966,29.27114 C 681.44097,79.65 686.00732,75 691.07711,69.5 c 5.06979,-5.5 14.65883,-15.85 21.30898,-23 6.65015,-7.15 14.7963,-15.825571 18.10255,-19.279047 L 736.5,20.941907 757.82277,21.220953 779.14554,21.5 764.90859,37 c -7.83032,8.525 -19.5099,21.125 -25.95463,28 -6.44473,6.875 -12.89585,13.91496 -14.33582,15.644356 C 723.17816,82.373752 722,84.096183 722,84.471982 c 0,0.375798 3.2625,4.879427 7.25,10.008063 3.9875,5.128637 10.83119,13.981205 15.2082,19.672375 4.37702,5.69117 11.77682,15.29758 16.444,21.34758 4.66719,6.05 11.54861,14.9375 15.29206,19.75 l 6.80626,8.75 h -22.99488 -22.99487 l -9.75539,-12.2588 C 721.88992,144.99886 713.675,134.56603 709,128.55714 c -4.675,-6.00889 -9.6392,-12.23623 -11.03156,-13.83853 l -2.53156,-2.91327 -7.70255,7.84733 -7.70255,7.84733 -0.0159,18.25 L 680,164 Z M 815,164 H 795 V 92.5 21 l 37.25,1.71e-4 c 28.52057,1.32e-4 39.0076,0.341566 44.75,1.456959 4.125,0.801234 9.75,2.135196 12.5,2.964362 2.75,0.829165 7.7,3.126714 11,5.105664 3.3,1.97895 7.59017,5.141196 9.53371,7.027215 1.94354,1.886018 4.99211,5.835466 6.77459,8.776552 1.78249,2.941086 4.12982,8.455868 5.21629,12.255071 C 923.25214,62.878495 924,68.524738 924,73.5 c 0,4.975262 -0.74786,10.621505 -1.97541,14.914006 -1.08647,3.799203 -3.44897,9.36071 -5.25,12.358904 -1.80102,2.99819 -5.29959,7.247 -7.77459,9.44179 -2.475,2.19479 -6.15697,4.83792 -8.18215,5.87362 -2.02518,1.03571 -3.90601,2.2453 -4.1796,2.68799 -0.2736,0.4427 1.636,3.93663 4.24355,7.76429 2.60755,3.82767 9.01958,13.2594 14.24895,20.9594 5.22938,7.7 9.84081,14.5625 10.24762,15.25 0.58214,0.9838 -3.73259,1.25 -20.26071,1.25 h -21.00037 l -6.91224,-10.25 c -3.80173,-5.6375 -9.56562,-14.17271 -12.80865,-18.96714 L 858.5,126.06572 846.75,126.03286 835,126 v 19 19 z m 36.23011,-69.009769 c 15.01547,-0.009 16.66306,-0.192844 21.36939,-2.384265 2.80472,-1.305974 5.97666,-3.664078 7.04875,-5.240231 1.07209,-1.576154 2.48982,-4.124409 3.15051,-5.662788 C 883.45944,80.164568 884,76.429721 884,73.403287 c 0,-3.070804 -0.71238,-6.916954 -1.61195,-8.702947 -0.88658,-1.760187 -2.99007,-4.652746 -4.67443,-6.427908 -1.68436,-1.775162 -5.16255,-3.925101 -7.72931,-4.777642 -3.56472,-1.18401 -8.18767,-1.484507 -19.57557,-1.272432 L 835.5,52.5 835.23011,73.75 834.96022,95 Z"
         id="path2" />
    </g>
  </g>
</svg>
